<svg xmlns="http://www.w3.org/2000/svg" viewBox="-27.81 -4.72 36.42 20.80" width="36.42" height="20.80" fill="#000">
  <g transform="scale(1, -1)">
    <path d="M-15.39-8.02L-16.27-8.02Q-16.32-7.46-16.38-6.69Q-16.43-5.92-16.48-5.12Q-16.53-4.32-16.53-3.68L-16.53 0L-15.15 0L-15.15-3.68Q-15.15-4.32-15.19-5.12Q-15.23-5.92-15.29-6.69Q-15.34-7.46-15.39-8.02M-18.59-5.06L-18.59-6.30L-25.49-6.30L-21.94-9.86L-23.65-9.84L-27.81-5.68L-23.65-1.50L-21.95-1.50L-25.49-5.06L-18.59-5.06M8.61-6.94L-13.17-6.94L-13.17-5.70L8.61-5.70L8.61-6.94M-14.85-11.36L-16.83-11.36L-16.83-9.41L-14.85-9.41"/>
  </g>
</svg>